<svg width="78" height="54" viewBox="0 0 78 54" fill="none" xmlns="http://www.w3.org/2000/svg">
<path d="M28.564 42.284H29.212C29.292 42.284 29.332 42.332 29.332 42.428V49.856C29.332 49.952 29.292 50 29.212 50H28.864C28.776 50 28.732 49.952 28.732 49.856V43.208H28.684L26.56 48.188C26.512 48.276 26.452 48.32 26.38 48.32H25.984C25.904 48.32 25.848 48.276 25.816 48.188L23.656 43.196H23.608V49.856C23.608 49.952 23.568 50 23.488 50H23.14C23.06 50 23.02 49.952 23.02 49.856V42.428C23.02 42.332 23.06 42.284 23.14 42.284H23.788C23.844 42.284 23.88 42.308 23.896 42.356L26.152 47.624H26.2L28.456 42.356C28.472 42.308 28.508 42.284 28.564 42.284ZM32.9835 49.46H34.3515C34.7195 49.46 34.9995 49.36 35.1915 49.16C35.3915 48.952 35.4915 48.656 35.4915 48.272V44.012C35.4915 43.628 35.3915 43.336 35.1915 43.136C34.9995 42.928 34.7195 42.824 34.3515 42.824H32.9835C32.6155 42.824 32.3355 42.928 32.1435 43.136C31.9515 43.344 31.8555 43.636 31.8555 44.012V48.272C31.8555 48.648 31.9515 48.94 32.1435 49.148C32.3355 49.356 32.6155 49.46 32.9835 49.46ZM34.4115 50H32.9355C32.4155 50 32.0035 49.848 31.6995 49.544C31.4035 49.24 31.2555 48.824 31.2555 48.296V43.988C31.2555 43.46 31.4035 43.044 31.6995 42.74C32.0035 42.436 32.4155 42.284 32.9355 42.284H34.4115C34.9315 42.284 35.3395 42.436 35.6355 42.74C35.9395 43.044 36.0915 43.46 36.0915 43.988V48.296C36.0915 48.824 35.9395 49.24 35.6355 49.544C35.3395 49.848 34.9315 50 34.4115 50ZM41.0803 50H39.5683C39.0483 50 38.6363 49.848 38.3323 49.544C38.0363 49.24 37.8883 48.824 37.8883 48.296V43.988C37.8883 43.46 38.0363 43.044 38.3323 42.74C38.6363 42.436 39.0483 42.284 39.5683 42.284H41.0803C41.6003 42.284 42.0083 42.436 42.3043 42.74C42.6083 43.044 42.7603 43.46 42.7603 43.988V44.576C42.7603 44.672 42.7163 44.72 42.6283 44.72H42.2923C42.2043 44.72 42.1603 44.672 42.1603 44.576V44.012C42.1603 43.628 42.0603 43.336 41.8603 43.136C41.6683 42.928 41.3883 42.824 41.0203 42.824H39.6163C39.2483 42.824 38.9683 42.928 38.7763 43.136C38.5843 43.344 38.4883 43.636 38.4883 44.012V48.272C38.4883 48.648 38.5843 48.94 38.7763 49.148C38.9683 49.356 39.2483 49.46 39.6163 49.46H41.0203C41.3883 49.46 41.6683 49.36 41.8603 49.16C42.0603 48.952 42.1603 48.656 42.1603 48.272V47.708C42.1603 47.612 42.2043 47.564 42.2923 47.564H42.6283C42.7163 47.564 42.7603 47.612 42.7603 47.708V48.296C42.7603 48.824 42.6083 49.24 42.3043 49.544C42.0083 49.848 41.6003 50 41.0803 50ZM44.3082 50H43.9362C43.8482 50 43.8202 49.952 43.8522 49.856L46.2402 42.428C46.2642 42.332 46.3202 42.284 46.4082 42.284H46.9722C47.0522 42.284 47.1082 42.332 47.1402 42.428L49.5282 49.856C49.5522 49.952 49.5242 50 49.4442 50H49.0602C48.9802 50 48.9282 49.952 48.9042 49.856L48.2562 47.936H45.1122L44.4642 49.856C44.4322 49.952 44.3802 50 44.3082 50ZM46.6602 42.944L45.2802 47.396H48.1002L46.7082 42.944H46.6602ZM51.3786 50H51.0306C50.9506 50 50.9106 49.952 50.9106 49.856V42.428C50.9106 42.332 50.9506 42.284 51.0306 42.284H53.7906C54.3106 42.284 54.7226 42.436 55.0266 42.74C55.3306 43.044 55.4826 43.46 55.4826 43.988V45.392C55.4826 45.92 55.3306 46.336 55.0266 46.64C54.7226 46.944 54.3106 47.096 53.7906 47.096H51.6306C51.5506 47.096 51.5106 47.128 51.5106 47.192V49.856C51.5106 49.952 51.4666 50 51.3786 50ZM51.6306 46.544H53.7426C54.1106 46.544 54.3906 46.444 54.5826 46.244C54.7746 46.036 54.8706 45.744 54.8706 45.368V44.012C54.8706 43.628 54.7746 43.336 54.5826 43.136C54.3906 42.928 54.1106 42.824 53.7426 42.824H51.6306C51.5506 42.824 51.5106 42.86 51.5106 42.932V46.448C51.5106 46.512 51.5506 46.544 51.6306 46.544Z" fill="#FBA926"/>
<path d="M73 0C75.7614 0 78 2.23858 78 5V10H53V25H78V30C78 32.7614 75.7614 35 73 35H48C45.2386 35 43 32.7614 43 30V5C43 2.23858 45.2386 1.20798e-07 48 0H73Z" fill="#FBA926"/>
<path d="M17.5 23L10 15V35H5C2.23858 35 1.20802e-07 32.7614 0 30V5C0 2.23858 2.23858 1.20798e-07 5 0H9L17.5 9L26 0H30C32.7614 0 35 2.23858 35 5V30C35 32.7614 32.7614 35 30 35H25V15L17.5 23Z" fill="#FBA926"/>
</svg>
