<svg width="78" height="78" viewBox="0 0 78 78" fill="none" xmlns="http://www.w3.org/2000/svg">
<path d="M43 48C43 45.2386 45.2386 43 48 43H73C75.7614 43 78 45.2386 78 48V73C78 75.7614 75.7614 78 73 78H48C45.2386 78 43 75.7614 43 73L43 48Z" fill="#FBA926"/>
<path d="M43 48C43 45.2386 45.2386 43 48 43H73C75.7614 43 78 45.2386 78 48V73C78 75.7614 75.7614 78 73 78H48C45.2386 78 43 75.7614 43 73L43 48Z" fill="#FBA926"/>
<path d="M30 43C32.7614 43 35 45.2386 35 48V78H5C2.23858 78 1.20802e-07 75.7614 0 73V43H30ZM10 53V68H25V53H10Z" fill="#FBA926"/>
<path d="M73 0C75.7614 0 78 2.23858 78 5V10H53V25H78V30C78 32.7614 75.7614 35 73 35H48C45.2386 35 43 32.7614 43 30V5C43 2.23858 45.2386 1.20798e-07 48 0H73Z" fill="#FBA926"/>
<path d="M17.5 23L10 15V35H5C2.23858 35 1.20802e-07 32.7614 0 30V5C0 2.23858 2.23858 1.20798e-07 5 0H9L17.5 9L26 0H30C32.7614 0 35 2.23858 35 5V30C35 32.7614 32.7614 35 30 35H25V15L17.5 23Z" fill="#FBA926"/>
</svg>
